<svg width="36" height="36" viewBox="0 0 36 36" fill="none" xmlns="http://www.w3.org/2000/svg">
<path d="M32.694 30.3061L26.0157 23.625C28.018 21.0157 28.9529 17.7424 28.6306 14.4691C28.3083 11.1958 26.753 8.16774 24.2801 5.99905C21.8073 3.83035 18.6021 2.68348 15.3148 2.79106C12.0275 2.89865 8.90417 4.25265 6.57843 6.57838C4.2527 8.90412 2.8987 12.0274 2.79112 15.3148C2.68353 18.6021 3.83041 21.8073 5.9991 24.2801C8.16779 26.7529 11.1959 28.3082 14.4692 28.6305C17.7424 28.9528 21.0157 28.018 23.6251 26.0156L30.309 32.7009C30.4659 32.8579 30.6523 32.9824 30.8574 33.0674C31.0625 33.1523 31.2823 33.1961 31.5043 33.1961C31.7263 33.1961 31.9461 33.1523 32.1512 33.0674C32.3563 32.9824 32.5426 32.8579 32.6996 32.7009C32.8566 32.544 32.9811 32.3576 33.066 32.1525C33.151 31.9474 33.1947 31.7276 33.1947 31.5056C33.1947 31.2836 33.151 31.0638 33.066 30.8587C32.9811 30.6536 32.8566 30.4673 32.6996 30.3103L32.694 30.3061ZM6.18755 15.75C6.18755 13.8587 6.74838 12.0099 7.79912 10.4374C8.84986 8.86481 10.3433 7.63916 12.0906 6.9154C13.838 6.19164 15.7607 6.00227 17.6156 6.37124C19.4705 6.74021 21.1744 7.65095 22.5118 8.98829C23.8491 10.3256 24.7598 12.0295 25.1288 13.8844C25.4978 15.7394 25.3084 17.6621 24.5846 19.4094C23.8609 21.1567 22.6352 22.6502 21.0627 23.7009C19.4901 24.7517 17.6413 25.3125 15.7501 25.3125C13.2147 25.3099 10.784 24.3016 8.99122 22.5088C7.19847 20.7161 6.19016 18.2853 6.18755 15.75Z" fill="#2D2D2D"/>
</svg>
